<svg xmlns="http://www.w3.org/2000/svg" viewBox="0 0 48 48"><title>08-accounting</title><g id="_08-accounting" data-name="08-accounting"><path d="M38,38H36a3,3,0,0,1,0-6h2a3,3,0,0,1,3,3H39a1,1,0,0,0-1-1H36a1,1,0,0,0,0,2h2Z"/><path d="M38,42H36a3,3,0,0,1-3-3h2a1,1,0,0,0,1,1h2a1,1,0,0,0,0-2H36V36h2a3,3,0,0,1,0,6Z"/><rect x="36" y="31" width="2" height="2"/><rect x="36" y="41" width="2" height="2"/><path d="M37,48A11,11,0,1,1,48,37,11.013,11.013,0,0,1,37,48Zm0-20a9,9,0,1,0,9,9A9.011,9.011,0,0,0,37,28Z"/><path d="M25,44H17a3,3,0,0,1-3-3V39a3,3,0,0,1,3-3v2a1,1,0,0,0-1,1v2a1,1,0,0,0,1,1h8Z"/><path d="M24,38H18c-2.949,0-4-1.55-4-3V33a3,3,0,0,1,3-3v2a1,1,0,0,0-1,1v2c0,.9,1.4,1,2,1h6Z"/><path d="M25,32H17a3,3,0,0,1-3-3V27a3,3,0,0,1,3-3H31v2H17a1,1,0,0,0-1,1v2a1,1,0,0,0,1,1h8Z"/><path d="M31,26H17a3,3,0,0,1-3-3V21a3,3,0,0,1,3-3H31a3,3,0,0,1,3,3v2A3,3,0,0,1,31,26ZM17,20a1,1,0,0,0-1,1v2a1,1,0,0,0,1,1H31a1,1,0,0,0,1-1V21a1,1,0,0,0-1-1Z"/><path d="M28,48H3a3,3,0,0,1-3-3V9a1,1,0,0,1,.293-.707l8-8A1,1,0,0,1,9,0H35a3,3,0,0,1,3,3V24H36V3a1,1,0,0,0-1-1H9.414L2,9.414V45a1,1,0,0,0,1,1H28Z"/><path d="M9,10H1V8H8V1h2V9A1,1,0,0,1,9,10Z"/><path d="M9,44H7a3,3,0,0,1-3-3V39H6v2a1,1,0,0,0,1,1H9Z"/><rect x="4" y="35" width="2" height="2"/></g></svg>